<svg width="85" height="85" viewBox="0 0 85 85" fill="none" xmlns="http://www.w3.org/2000/svg">
<path d="M17 0H8C3.58172 0 0 3.58172 0 8V17C0 21.4183 3.58172 25 8 25H17C21.4183 25 25 21.4183 25 17V8C25 3.58172 21.4183 0 17 0Z" fill="#9C9B96"/>
<path d="M17 30H8C3.58172 30 0 33.5817 0 38V47C0 51.4183 3.58172 55 8 55H17C21.4183 55 25 51.4183 25 47V38C25 33.5817 21.4183 30 17 30Z" fill="#7E7D78"/>
<path d="M17 60H8C3.58172 60 0 63.5817 0 68V77C0 81.4183 3.58172 85 8 85H17C21.4183 85 25 81.4183 25 77V68C25 63.5817 21.4183 60 17 60Z" fill="#C4C3BE"/>
<path d="M47 0H38C33.5817 0 30 3.58172 30 8V17C30 21.4183 33.5817 25 38 25H47C51.4183 25 55 21.4183 55 17V8C55 3.58172 51.4183 0 47 0Z" fill="#5C5B57"/>
<path d="M47 30H38C33.5817 30 30 33.5817 30 38V47C30 51.4183 33.5817 55 38 55H47C51.4183 55 55 51.4183 55 47V38C55 33.5817 51.4183 30 47 30Z" fill="#9C9B96"/>
<path d="M47 60H38C33.5817 60 30 63.5817 30 68V77C30 81.4183 33.5817 85 38 85H47C51.4183 85 55 81.4183 55 77V68C55 63.5817 51.4183 60 47 60Z" fill="#595854"/>
<path d="M77 0H68C63.5817 0 60 3.58172 60 8V17C60 21.4183 63.5817 25 68 25H77C81.4183 25 85 21.4183 85 17V8C85 3.58172 81.4183 0 77 0Z" fill="#7E7D78"/>
<path d="M77 30H68C63.5817 30 60 33.5817 60 38V47C60 51.4183 63.5817 55 68 55H77C81.4183 55 85 51.4183 85 47V38C85 33.5817 81.4183 30 77 30Z" fill="#C4C3BE"/>
<path d="M77 60H68C63.5817 60 60 63.5817 60 68V77C60 81.4183 63.5817 85 68 85H77C81.4183 85 85 81.4183 85 77V68C85 63.5817 81.4183 60 77 60Z" fill="#7E7D78"/>
</svg>
